PathFileType	4	(X/Y/Z)	Kaydara	
DataRate	CameraRate	NumFrames	NumMarkers	Units	OrigDataRate	OrigDataStartFrame	OrigNumFrames	
60.00	60.00	4	74	mm	60.00	230	96	
Frame#	Time	Z_lasi			Z_rasi			Z_rpsi			Z_lpsi			Z_fneck			Z_bneck			Z_fhead			Z_rhead			Z_lhead			Z_rshld			Z_relbtop			Z_relbext			Z_relblow			Z_rwrext			Z_rwrtop			Z_rwrlow			Z_lshld			Z_lelbext			Z_lelblow			Z_lelbtop			Z_lwrext			Z_lwrtop			Z_lwrlow			Z_rtopleg			Z_ltopleg			Z_rkneefr			Z_rkneebk			Z_rkneeis			Z_lkneefr			Z_lknssbk			Z_lkneeis			Z_rankfr			Z_rankis			Z_rankbk			Z_lankfr			Z_lankbk			Z_lankis			A_lasi			A_rasi			A_rpsi			A_lpsi			A_fneck			A_bneck			A_fhead			A_rhead			A_lhead			A_rshld			A_relbtop			A_relbext			A_relblow			A_rwrext			A_rwrtop			A_rwrlow			A_lshld			A_lelbext			A_lelblow			A_lelbtop			A_lwrext			A_lwrtop			A_lwrlow			A_rtopleg			A_ltopleg			A_rkneefr			A_rkneebk			A_rkneeis			A_lkneefr			A_lknssbk			A_lkneeis			A_rankfr			A_rankis			A_rankbk			A_lankfr			A_lankbk			A_lankis			
		X1	Y1	Z1	X2	Y2	Z2	X3	Y3	Z3	X4	Y4	Z4	X5	Y5	Z5	X6	Y6	Z6	X7	Y7	Z7	X8	Y8	Z8	X9	Y9	Z9	X10	Y10	Z10	X11	Y11	Z11	X12	Y12	Z12	X13	Y13	Z13	X14	Y14	Z14	X15	Y15	Z15	X16	Y16	Z16	X17	Y17	Z17	X18	Y18	Z18	X19	Y19	Z19	X20	Y20	Z20	X21	Y21	Z21	X22	Y22	Z22	X23	Y23	Z23	X24	Y24	Z24	X25	Y25	Z25	X26	Y26	Z26	X27	Y27	Z27	X28	Y28	Z28	X29	Y29	Z29	X30	Y30	Z30	X31	Y31	Z31	X32	Y32	Z32	X33	Y33	Z33	X34	Y34	Z34	X35	Y35	Z35	X36	Y36	Z36	X37	Y37	Z37	X38	Y38	Z38	X39	Y39	Z39	X40	Y40	Z40	X41	Y41	Z41	X42	Y42	Z42	X43	Y43	Z43	X44	Y44	Z44	X45	Y45	Z45	X46	Y46	Z46	X47	Y47	Z47	X48	Y48	Z48	X49	Y49	Z49	X50	Y50	Z50	X51	Y51	Z51	X52	Y52	Z52	X53	Y53	Z53	X54	Y54	Z54	X55	Y55	Z55	X56	Y56	Z56	X57	Y57	Z57	X58	Y58	Z58	X59	Y59	Z59	X60	Y60	Z60	X61	Y61	Z61	X62	Y62	Z62	X63	Y63	Z63	X64	Y64	Z64	X65	Y65	Z65	X66	Y66	Z66	X67	Y67	Z67	X68	Y68	Z68	X69	Y69	Z69	X70	Y70	Z70	X71	Y71	Z71	X72	Y72	Z72	X73	Y73	Z73	X74	Y74	Z74	

25	3.817	-262.96692	1085.23659	624.15535	-363.49323	1082.65953	440.40585	-213.51770	1110.55580	317.63021	-91.25360	1105.38498	534.32423	-308.25211	1444.87213	473.02654	-206.83489	1513.73718	435.75562	-421.80748	1627.49664	432.69062	-278.96343	1635.17853	343.90327	-263.68475	1657.24213	489.64561	-319.87720	1429.88785	280.16796	-454.21909	1139.18625	293.26883	-426.32957	1125.18982	346.85936	-478.70140	1206.27281	329.50630	-647.42401	1114.32922	463.07758	-653.04443	1160.53528	459.68716	-624.72698	1169.27963	491.21910	-148.52663	1476.35620	615.58281	-77.05090	1168.83690	641.70280	-113.92820	1199.39880	719.54338	-46.42420	1199.87511	700.46654	-177.66811	949.80965	769.19952	-149.63008	947.17979	808.12706	-110.83941	940.40878	784.79866	-262.37885	921.84372	294.35879	-167.47700	897.84019	648.52249	-295.30924	422.46639	398.05885	-232.61164	445.24204	337.26521	-221.25835	437.87853	460.67604	-254.15041	453.77766	651.12991	-149.01067	477.68105	632.53441	-247.32769	444.88415	559.76307	-263.07968	177.92311	396.08295	-233.30078	179.44889	455.98709	-188.30696	167.53750	381.48766	-169.71462	171.77151	658.42796	-111.61087	177.38976	602.95605	-189.77566	176.68238	587.75520	-1106.88126	1031.83670	484.51820	-1057.39197	1038.95042	636.78658	-1206.25168	1032.61826	691.78299	-1227.58408	1034.00772	510.15820	-1134.72916	1381.37695	594.48589	-1273.26035	1398.55255	621.05335	-1084.86656	1590.12009	582.26604	-1207.08092	1556.74683	699.44221	-1243.46695	1547.18353	539.77135	-1153.77121	1354.18350	773.17528	-969.66621	1149.53773	758.89755	-1000.84579	1093.54874	751.85822	-981.11069	1145.93094	702.93854	-752.31277	1128.08350	670.27061	-758.30574	1173.62076	676.38130	-779.51981	1167.32040	642.14172	-1226.57677	1355.03510	436.47152	-1232.30446	1039.04861	436.66969	-1165.56198	1061.38840	420.26424	-1211.72325	1050.23514	393.06335	-1090.66246	847.68234	401.94115	-1115.07339	842.62009	365.33138	-1077.76772	864.55063	350.52219	-1131.88766	873.64296	760.35622	-1162.86217	881.69495	416.78730	-1064.83360	456.40484	646.86295	-1166.64207	478.01567	708.00674	-1165.95680	482.57648	589.04778	-955.17250	494.67491	519.76418	-1061.00754	481.00090	447.19421	-1052.48741	480.92319	569.64821	-1105.65140	163.29784	663.29414	-1147.09946	160.27596	602.07569	-1184.26064	143.90065	675.19478	-1086.33133	184.68330	463.41328	-1150.06638	205.67699	440.67863	-1131.21376	199.24547	528.18993 
26	3.833	-262.19742	1085.03609	624.66606	-362.77554	1082.46323	440.92846	-212.88383	1110.54672	318.07821	-90.71550	1105.43442	534.80793	-309.91947	1443.43613	473.94012	-209.24719	1513.86871	436.59630	-426.51886	1624.04785	434.64935	-284.04770	1634.50043	345.63625	-268.89029	1656.13541	491.36570	-322.76825	1430.07416	281.97964	-457.60731	1139.98482	298.12262	-428.41152	1125.85358	350.97443	-481.84429	1206.70898	334.97505	-647.02278	1110.50926	471.29631	-653.89191	1156.68274	468.26153	-625.01614	1165.76988	499.26567	-149.91951	1476.48514	616.16604	-77.33147	1169.27078	643.19138	-114.66039	1199.95766	720.59578	-46.88275	1200.61691	701.90193	-178.61820	950.62912	770.28908	-150.51300	948.07594	809.23088	-111.89853	941.26602	786.30623	-261.73025	921.90277	294.96832	-166.87840	897.74040	648.98071	-295.42257	422.53757	398.16593	-232.60157	445.36846	337.55711	-221.73914	437.94273	461.06892	-253.01573	453.86734	652.39288	-148.41969	477.22958	632.59548	-247.45171	444.81113	560.73910	-263.13986	177.94186	396.13380	-233.41520	179.45213	456.09318	-188.32748	167.57601	381.67950	-168.53163	171.37423	658.36708	-111.69881	177.12156	602.38037	-190.12304	176.50177	588.40889	-1102.29424	1033.20427	483.73199	-1053.10951	1039.34868	636.27457	-1202.14355	1032.76588	691.18698	-1223.00964	1035.11909	509.49886	-1130.32860	1381.89713	594.56627	-1268.80280	1398.80112	621.40896	-1080.91064	1590.71838	582.41985	-1202.87766	1556.96045	699.83208	-1239.38728	1547.46292	540.12577	-1148.31070	1354.56451	772.50755	-961.74461	1152.25777	755.30708	-992.67044	1095.99426	748.86337	-974.26071	1148.25577	699.63669	-744.67407	1128.39218	665.31364	-750.31509	1173.94623	671.58539	-771.90582	1167.81700	637.31083	-1222.18292	1355.92117	436.57600	-1228.48656	1040.11482	436.51478	-1161.80862	1061.90292	419.64752	-1208.11119	1051.09367	392.79163	-1089.93713	846.55014	400.87479	-1114.76830	842.17293	364.70215	-1077.15355	863.51852	349.47327	-1128.03253	873.62465	758.75778	-1157.27898	883.26797	415.67493	-1063.21533	456.20186	645.98869	-1164.87808	478.30864	706.92543	-1164.24500	482.82051	588.03032	-955.89828	494.25816	522.38186	-1060.44167	480.45475	447.49332	-1054.47403	480.22961	569.90616	-1105.19188	163.36447	662.91786	-1146.47964	160.41700	601.71726	-1183.84514	144.31371	674.79012	-1069.60930	180.43316	462.27806	-1133.63075	197.53361	436.88290	-1117.72743	192.24533	525.22472 
27	3.850	-261.34628	1084.86740	625.34714	-361.84010	1082.24419	441.58226	-212.14296	1110.50499	318.63737	-90.07034	1105.54527	535.42496	-311.45479	1441.89468	475.07072	-211.75920	1513.95523	437.69821	-431.17500	1620.63431	436.91711	-289.17892	1633.81470	347.49264	-273.72810	1655.04013	493.26847	-325.67593	1430.13626	284.05783	-459.93252	1139.61632	302.65419	-429.36752	1125.26962	354.76963	-483.85113	1206.17523	340.55271	-645.20103	1106.76491	479.51321	-653.57254	1152.59438	476.09158	-624.36504	1162.49954	506.13007	-151.53697	1476.52222	617.00726	-77.26065	1169.72824	644.40407	-115.08728	1200.42496	721.71471	-47.19575	1201.11633	703.13202	-179.26207	951.33018	771.52458	-151.51573	948.84369	810.54787	-112.58871	941.90369	787.75223	-260.98280	921.98990	295.73248	-165.95778	897.73720	649.33441	-295.50016	422.56405	398.31207	-232.59584	445.44014	337.86304	-222.18300	437.92282	461.48045	-251.91965	453.64502	653.38570	-147.73577	476.90289	632.26528	-248.24059	444.56287	561.64314	-263.17350	177.93701	396.19797	-233.47155	179.38204	456.20342	-188.30044	167.60786	381.83285	-168.37439	171.29074	658.50761	-111.82446	176.74751	601.47411	-190.39351	176.38248	588.72799	-1097.63832	1034.35013	482.97085	-1048.89954	1039.79988	635.64072	-1197.97096	1032.67860	690.21355	-1218.26012	1035.83984	508.38131	-1126.44974	1382.04422	594.60007	-1264.73122	1398.91983	621.64341	-1076.82434	1590.79681	582.52148	-1198.66745	1557.01538	700.06279	-1235.47531	1547.65778	540.40943	-1143.66936	1354.58130	772.06902	-955.36858	1153.82797	752.05551	-986.02066	1097.26570	745.94231	-968.39897	1149.66125	696.39008	-738.27255	1126.35597	661.93275	-743.24326	1172.13959	667.68936	-764.68788	1166.27029	633.57731	-1217.90367	1356.55701	436.64963	-1224.50066	1041.07262	436.03741	-1157.74696	1062.34314	418.71761	-1204.22195	1051.85783	392.04117	-1089.42375	845.70602	399.89006	-1114.74388	841.28922	363.58597	-1076.96037	861.94107	347.97451	-1124.13605	873.71521	757.07741	-1151.13045	884.27773	414.20391	-1061.23192	455.94849	645.03151	-1162.97028	478.62915	705.76576	-1162.09030	483.03085	586.89575	-957.94014	492.60948	525.10162	-1060.80467	479.28570	447.23373	-1058.46741	478.77335	569.69402	-1104.75197	163.40857	662.60918	-1145.94231	160.47848	601.34445	-1183.45367	144.74085	674.38202	-1054.86565	176.53395	461.77208	-1118.30505	189.84114	433.30948	-1106.05392	185.58445	522.51045 
28	3.867	-260.39022	1084.72122	626.08528	-360.84511	1081.94801	442.27966	-211.28910	1110.50552	319.33575	-89.31400	1105.71594	536.17943	-312.99679	1440.50674	476.50433	-214.21654	1514.00391	438.93776	-435.55374	1617.19376	439.46167	-294.10788	1633.07831	349.64661	-278.63001	1653.90778	495.35748	-328.77453	1429.79172	286.32290	-460.45040	1137.65442	306.88824	-428.67023	1123.35312	358.12187	-483.83560	1204.12437	345.88963	-641.64932	1104.18030	487.07069	-651.96915	1149.40208	481.86409	-622.89410	1161.59813	510.85785	-153.06941	1476.42731	617.82490	-77.16813	1170.03319	645.62691	-115.29783	1200.57938	722.73911	-47.38244	1201.51413	704.48540	-179.53257	951.88141	772.58629	-151.94140	949.56421	811.77597	-113.03156	942.33200	789.05212	-260.20264	922.09885	296.36908	-164.96799	897.71362	649.90059	-295.53783	422.55661	398.66989	-232.59579	445.44975	338.21445	-222.29723	437.83897	461.82442	-250.66549	453.41503	653.64990	-147.13600	476.77452	631.47453	-248.58059	444.32724	562.16331	-263.17104	177.94132	396.24981	-233.54185	179.29119	456.32641	-188.30523	167.62392	381.97666	-167.35409	170.88863	657.84500	-111.82756	176.42124	600.50915	-190.52774	176.45702	588.98579	-1092.54211	1035.21385	481.97929	-1044.61227	1040.22507	634.95079	-1194.00780	1032.23770	688.83415	-1213.34549	1036.15967	506.92177	-1123.15895	1381.89301	594.72950	-1261.39183	1399.06784	621.59168	-1072.82776	1590.28046	582.67403	-1194.79843	1557.05627	700.19714	-1231.77696	1547.82623	540.63301	-1140.34073	1354.42520	771.66237	-950.87219	1153.73337	749.25781	-982.14836	1097.47849	743.43559	-964.26712	1149.66446	693.88260	-733.43048	1120.96024	662.09846	-737.11067	1166.93497	667.67105	-757.95151	1161.53481	633.12904	-1213.94371	1356.86584	436.43284	-1220.28336	1041.73134	435.03395	-1153.53661	1062.53090	417.36649	-1200.21744	1052.31995	390.92842	-1089.33311	844.22127	397.79106	-1115.34683	840.38864	361.26640	-1076.99081	859.94896	346.04496	-1120.28549	873.69736	755.21820	-1144.56253	884.83994	412.26204	-1059.02382	455.80788	644.14909	-1160.82802	479.05254	704.42459	-1159.34647	483.29067	585.55504	-959.75494	490.13943	527.43629	-1060.73082	477.68047	446.49918	-1062.31918	476.63223	568.79406	-1104.22852	163.44288	662.28661	-1145.11108	160.58533	600.87879	-1183.06107	145.23982	673.79807	-1046.14517	173.32363	462.56470	-1108.55423	184.23948	431.22269	-1099.83299	180.85655	521.59431 
